<?xml version="1.0" encoding="UTF-8" standalone="no"?><svg xmlns:dc="http://purl.org/dc/elements/1.1/" xmlns:cc="http://creativecommons.org/ns#" xmlns:rdf="http://www.w3.org/1999/02/22-rdf-syntax-ns#" xmlns:svg="http://www.w3.org/2000/svg" xmlns="http://www.w3.org/2000/svg" viewBox="0 0 45 45" style="enable-background:new 0 0 45 45;" xml:space="preserve" version="1.1" id="svg2"><metadata id="metadata8"><rdf:RDF><cc:Work rdf:about=""><dc:format>image/svg+xml</dc:format><dc:type rdf:resource="http://purl.org/dc/dcmitype/StillImage"/></cc:Work></rdf:RDF></metadata><defs id="defs6"><clipPath id="clipPath16" clipPathUnits="userSpaceOnUse"><path id="path18" d="M 0,36 36,36 36,0 0,0 0,36 Z"/></clipPath></defs>
<g transform="matrix(1.25,0,0,-1.25,0,45)" id="g10">
<g id="g12">
<g clip-path="url(#clipPath16)" id="g14">
<g transform="translate(35.75,14.6162)" id="body"><path id="path26" style="fill:#e1e8ed;fill-opacity:1;fill-rule:nonzero;stroke:none" d="m 0,0 c 0,7.783 -4.495,11.407 -14.519,11.407 -1.086,0 -2.083,-0.051 -3.018,-0.137 -1.36,2.423 -4.845,2.828 -8.213,2.828 -4.304,0 -10,-6.145 -10,-10.839 0,-4.609 3.606,-4.866 7.811,-4.874 0.233,-3.245 1.226,-5.647 3.249,-7.26 0.277,-1.15 1.534,-5.741 3.94,-5.741 1.353,0 2.099,1.695 2.51,3.417 1.128,-0.136 2.359,-0.209 3.721,-0.209 1.733,0 3.289,0.116 4.696,0.335 0.09,-1.657 0.531,-3.543 2.073,-3.543 2.317,0 4.273,4.956 4.834,6.52 C -0.947,-6.226 0,-3.55 0,0"/></g>
<g transform="translate(6,20.2139)" id="g28"><path id="eye" style="fill:#292f33;fill-opacity:1;fill-rule:nonzero;stroke:none" d="M 0,0 C 0,-0.828 -0.671,-1.5 -1.5,-1.5 -2.329,-1.5 -3,-0.828 -3,0 -3,0.829 -2.329,1.5 -1.5,1.5 -0.671,1.5 0,0.829 0,0"/></g>
</g></g></g></svg>
