<?xml version="1.0" encoding="UTF-8" standalone="no"?><svg xmlns:dc="http://purl.org/dc/elements/1.1/" xmlns:cc="http://creativecommons.org/ns#" xmlns:rdf="http://www.w3.org/1999/02/22-rdf-syntax-ns#" xmlns:svg="http://www.w3.org/2000/svg" xmlns="http://www.w3.org/2000/svg" viewBox="0 0 45 45" style="enable-background:new 0 0 45 45;" xml:space="preserve" version="1.1" id="svg2"><metadata id="metadata8"><rdf:RDF><cc:Work rdf:about=""><dc:format>image/svg+xml</dc:format><dc:type rdf:resource="http://purl.org/dc/dcmitype/StillImage"/></cc:Work></rdf:RDF></metadata><defs id="defs6"><clipPath id="clipPath16" clipPathUnits="userSpaceOnUse"><path id="path18" d="M 0,36 36,36 36,0 0,0 0,36 Z"/></clipPath></defs>
<g transform="matrix(1.25,0,0,-1.25,0,45)" id="g10">
<g id="g12">
<g clip-path="url(#clipPath16)" id="g14">
<g transform="translate(13.8594,20.5049)" id="g28"><path id="path30" style="fill:#c1694f;fill-opacity:1;fill-rule:nonzero;stroke:none" d="m 0,0 c 0.596,-2.392 0.16,-4.422 -2.232,-5.017 -2.392,-0.595 -6.344,-0.558 -7.958,1.303 -2.294,2.647 -2.531,6.391 -1.189,6.725 C -10.038,3.345 -0.595,2.392 0,0"/></g>
<g transform="translate(22.1416,20.5049)" id="g32"><path id="path34" style="fill:#c1694f;fill-opacity:1;fill-rule:nonzero;stroke:none" d="m 0,0 c -0.596,-2.392 -0.16,-4.422 2.231,-5.017 2.392,-0.595 6.345,-0.558 7.958,1.303 2.295,2.647 2.532,6.391 1.19,6.725 C 10.038,3.345 0.596,2.392 0,0"/></g>
<g transform="translate(2.48,23.5156)" id="g36"><path id="path38" style="fill:#272b2b;fill-opacity:1;fill-rule:nonzero;stroke:none" d="m 0,0 c -0.943,-0.235 -1.102,-2.157 -0.317,-4.198 l 3.374,4.135 C 1.6,0.083 0.414,0.103 0,0"/></g>
<g transform="translate(33.5205,23.5156)" id="g40"><path id="path42" style="fill:#272b2b;fill-opacity:1;fill-rule:nonzero;stroke:none" d="M 0,0 C -0.419,0.105 -1.632,0.083 -3.118,-0.069 L 0.327,-4.175 C 1.102,-2.143 0.94,-0.234 0,0"/></g>
<g transform="translate(12.0518,20.0034)" id="g44"><path id="path46" style="fill:#e6aaaa;fill-opacity:1;fill-rule:nonzero;stroke:none" d="M 0,0 C 0.871,-1.393 -0.553,-2.229 -1.946,-3.099 -3.339,-3.97 -6.554,-2.896 -7.424,-1.503 -8.295,-0.11 -8.61,1.628 -8.1,1.946 -7.59,2.265 -0.871,1.394 0,0"/></g>
<g transform="translate(23.9482,20.0034)" id="g48"><path id="path50" style="fill:#e6aaaa;fill-opacity:1;fill-rule:nonzero;stroke:none" d="M 0,0 C -0.871,-1.393 0.553,-2.229 1.945,-3.099 3.34,-3.97 6.554,-2.896 7.424,-1.503 8.295,-0.11 8.609,1.628 8.1,1.946 7.59,2.265 0.871,1.394 0,0"/></g>
<g transform="translate(18,21.875)" id="g52"><path id="path54" style="fill:#c1694f;fill-opacity:1;fill-rule:nonzero;stroke:none" d="m 0,0 0,0 -0.001,0 -0.002,0 c -10.27,-0.001 -8.703,-3.959 -7.602,-10.541 1.1,-6.584 2.401,-11.256 7.605,-11.256 5.203,0 6.502,4.672 7.604,11.256 C 8.703,-3.959 10.27,-0.001 0,0"/></g>
<g transform="translate(11.8262,13.1494)" id="g56"><path id="path58" style="fill:#272b2b;fill-opacity:1;fill-rule:nonzero;stroke:none" d="M 0,0 C 0,0 -0.75,1.299 0.549,2.049 1.848,2.799 2.598,1.5 2.598,1.5 l 0.75,-1.299 c 0,0 0.75,-1.299 -0.549,-2.049 C 1.5,-2.598 0.75,-1.299 0.75,-1.299 L 0,0 Z"/></g>
<g transform="translate(21.5762,14.6494)" id="g60"><path id="path62" style="fill:#272b2b;fill-opacity:1;fill-rule:nonzero;stroke:none" d="M 0,0 C 0,0 0.75,1.299 2.049,0.549 3.348,-0.201 2.598,-1.5 2.598,-1.5 l -0.75,-1.299 c 0,0 -0.75,-1.299 -2.049,-0.549 -1.299,0.75 -0.549,2.049 -0.549,2.049 L 0,0 Z"/></g>
<g transform="translate(15.2256,1.7344)" id="g64"><path id="path66" style="fill:#272b2b;fill-opacity:1;fill-rule:nonzero;stroke:none" d="M 0,0 C -0.925,0.188 1.85,3.596 2.774,3.596 3.699,3.596 6.474,0.188 5.549,0 4.624,-0.188 0.925,-0.188 0,0"/></g></g></g></g></svg>
