<?xml version="1.0" encoding="UTF-8" standalone="no"?><svg xmlns:dc="http://purl.org/dc/elements/1.1/" xmlns:cc="http://creativecommons.org/ns#" xmlns:rdf="http://www.w3.org/1999/02/22-rdf-syntax-ns#" xmlns:svg="http://www.w3.org/2000/svg" xmlns="http://www.w3.org/2000/svg" viewBox="0 0 45 45" style="enable-background:new 0 0 45 45;" xml:space="preserve" version="1.1" id="svg2"><metadata id="metadata8"><rdf:RDF><cc:Work rdf:about=""><dc:format>image/svg+xml</dc:format><dc:type rdf:resource="http://purl.org/dc/dcmitype/StillImage"/></cc:Work></rdf:RDF></metadata><defs id="defs6"><clipPath id="clipPath16" clipPathUnits="userSpaceOnUse"><path id="path18" d="M 0,36 36,36 36,0 0,0 0,36 Z"/></clipPath></defs>
<g transform="matrix(1.25,0,0,-1.25,0,45)" id="g10">
<g id="g12">
<g clip-path="url(#clipPath16)" id="g14">
<g transform="translate(13.8594,26.5049)" id="g24"><path id="path26" style="fill:#ffcc4d;fill-opacity:1;fill-rule:nonzero;stroke:none" d="m 0,0 c 0.596,-2.392 0.16,-4.422 -2.232,-5.017 -2.392,-0.596 -6.363,-0.087 -6.958,2.304 -0.596,2.392 0.469,5.39 1.811,5.724 C -6.038,3.345 -0.595,2.392 0,0"/></g>
<g transform="translate(22.9629,8.0732)" id="g28"><path id="path30" style="fill:#ffcc4d;fill-opacity:1;fill-rule:nonzero;stroke:none" d="m 0,0 c 0,-2.74 -2.222,-4.963 -4.963,-4.963 -2.741,0 -4.963,2.223 -4.963,4.963 0,2.741 2.222,4.964 4.963,4.964 C -2.222,4.964 0,2.741 0,0"/></g>
<g transform="translate(21.3086,8.0732)" id="g32"><path id="path34" style="fill:#dd2e44;fill-opacity:1;fill-rule:nonzero;stroke:none" d="m 0,0 c 0,-1.827 -1.481,-3.309 -3.309,-3.309 -1.827,0 -3.308,1.482 -3.308,3.309 0,1.827 1.481,3.31 3.308,3.31 C -1.481,3.31 0,1.827 0,0"/></g>
<g transform="translate(11.0518,27.0034)" id="g36"><path id="path38" style="fill:#e6aaaa;fill-opacity:1;fill-rule:nonzero;stroke:none" d="M 0,0 C 0.871,-1.393 0.447,-3.229 -0.946,-4.1 -2.339,-4.971 -3.554,-4.897 -4.424,-3.503 -5.295,-2.11 -4.61,0.627 -4.1,0.946 -3.59,1.265 -0.871,1.394 0,0"/></g>
<g transform="translate(22.1406,26.5049)" id="g40"><path id="path42" style="fill:#ffcc4d;fill-opacity:1;fill-rule:nonzero;stroke:none" d="M 0,0 C -0.596,-2.392 -0.159,-4.422 2.232,-5.017 4.624,-5.613 8.595,-5.104 9.191,-2.713 9.786,-0.321 8.721,2.677 7.38,3.011 6.038,3.345 0.595,2.392 0,0"/></g>
<g transform="translate(24.9482,27.0034)" id="g44"><path id="path46" style="fill:#e6aaaa;fill-opacity:1;fill-rule:nonzero;stroke:none" d="M 0,0 C -0.871,-1.393 -0.447,-3.229 0.945,-4.1 2.34,-4.971 3.554,-4.897 4.424,-3.503 5.295,-2.11 4.609,0.627 4.1,0.946 3.59,1.265 0.871,1.394 0,0"/></g>
<g transform="translate(18,28.875)" id="g48"><path id="path50" style="fill:#ffcc4d;fill-opacity:1;fill-rule:nonzero;stroke:none" d="m 0,0 0,0 -0.001,0 -0.002,0 c -12.83,-0.001 -10.872,-4.958 -9.497,-11.542 1.375,-6.583 1.884,-8.333 1.884,-8.333 l 7.613,0 0.003,0 7.612,0 c 0,0 0.51,1.75 1.885,8.333 C 10.872,-4.958 12.829,-0.001 0,0"/></g>
<g transform="translate(12,20)" id="g52"><path id="path54" style="fill:#272b2b;fill-opacity:1;fill-rule:nonzero;stroke:none" d="M 0,0 C 0,0 0,1.5 1.5,1.5 3,1.5 3,0 3,0 L 3,-1.5 C 3,-1.5 3,-3 1.5,-3 0,-3 0,-1.5 0,-1.5 L 0,0 Z"/></g>
<g transform="translate(21,20)" id="g56"><path id="path58" style="fill:#272b2b;fill-opacity:1;fill-rule:nonzero;stroke:none" d="M 0,0 C 0,0 0,1.5 1.5,1.5 3,1.5 3,0 3,0 L 3,-1.5 C 3,-1.5 3,-3 1.5,-3 0,-3 0,-1.5 0,-1.5 L 0,0 Z"/></g>
<g transform="translate(20.168,14.4795)" id="g60"><path id="path62" style="fill:#ffe8b6;fill-opacity:1;fill-rule:nonzero;stroke:none" d="M 0,0 C -1.598,0 -1.385,-0.848 -2.169,-2.113 -2.951,-0.848 -2.739,0 -4.337,0 c -6.865,0 -6.837,-0.375 -6.865,-2.828 -0.058,-4.987 2.802,-6.132 5.257,-6.06 1.597,0.048 2.994,0.88 3.777,2.131 0.783,-1.251 2.179,-2.083 3.776,-2.131 2.455,-0.072 5.316,1.073 5.257,6.06 C 6.837,-0.375 6.865,0 0,0"/></g>
<g transform="translate(14.5815,14.5889)" id="g64"><path id="path66" style="fill:#272b2b;fill-opacity:1;fill-rule:nonzero;stroke:none" d="M 0,0 C -1.14,-0.232 2.279,-4.431 3.419,-4.431 4.558,-4.431 7.977,-0.232 6.837,0 5.698,0.232 1.139,0.232 0,0"/></g>
<g transform="translate(12,11.5)" id="g68"><path id="path70" style="fill:#d99e82;fill-opacity:1;fill-rule:nonzero;stroke:none" d="M 0,0 C 0,-0.276 -0.224,-0.5 -0.5,-0.5 -0.776,-0.5 -1,-0.276 -1,0 -1,0.276 -0.776,0.5 -0.5,0.5 -0.224,0.5 0,0.276 0,0"/></g>
<g transform="translate(11,9.5)" id="g72"><path id="path74" style="fill:#d99e82;fill-opacity:1;fill-rule:nonzero;stroke:none" d="M 0,0 C 0,-0.276 -0.224,-0.5 -0.5,-0.5 -0.776,-0.5 -1,-0.276 -1,0 -1,0.276 -0.776,0.5 -0.5,0.5 -0.224,0.5 0,0.276 0,0"/></g>
<g transform="translate(13,8.5)" id="g76"><path id="path78" style="fill:#d99e82;fill-opacity:1;fill-rule:nonzero;stroke:none" d="M 0,0 C 0,-0.276 -0.224,-0.5 -0.5,-0.5 -0.776,-0.5 -1,-0.276 -1,0 -1,0.276 -0.776,0.5 -0.5,0.5 -0.224,0.5 0,0.276 0,0"/></g>
<g transform="translate(24,11.5)" id="g80"><path id="path82" style="fill:#d99e82;fill-opacity:1;fill-rule:nonzero;stroke:none" d="M 0,0 C 0,-0.276 0.224,-0.5 0.5,-0.5 0.776,-0.5 1,-0.276 1,0 1,0.276 0.776,0.5 0.5,0.5 0.224,0.5 0,0.276 0,0"/></g>
<g transform="translate(25,9.5)" id="g84"><path id="path86" style="fill:#d99e82;fill-opacity:1;fill-rule:nonzero;stroke:none" d="M 0,0 C 0,-0.276 0.224,-0.5 0.5,-0.5 0.776,-0.5 1,-0.276 1,0 1,0.276 0.776,0.5 0.5,0.5 0.224,0.5 0,0.276 0,0"/></g>
<g transform="translate(23,8.5)" id="g88"><path id="path90" style="fill:#d99e82;fill-opacity:1;fill-rule:nonzero;stroke:none" d="M 0,0 C 0,-0.276 0.224,-0.5 0.5,-0.5 0.776,-0.5 1,-0.276 1,0 1,0.276 0.776,0.5 0.5,0.5 0.224,0.5 0,0.276 0,0"/></g></g></g></g></svg>
